<svg id="visual" viewBox="0 0 900 600" width="900" height="600" xmlns="http://www.w3.org/2000/svg" xmlns:xlink="http://www.w3.org/1999/xlink" version="1.1"><rect x="0" y="0" width="900" height="600" fill="#fff"></rect><defs><linearGradient id="grad1_0" x1="33.3%" y1="0%" x2="100%" y2="100%"><stop offset="20%" stop-color="#ffffff" stop-opacity="1"></stop><stop offset="80%" stop-color="#ffffff" stop-opacity="1"></stop></linearGradient></defs><defs><linearGradient id="grad2_0" x1="0%" y1="0%" x2="66.7%" y2="100%"><stop offset="20%" stop-color="#ffffff" stop-opacity="1"></stop><stop offset="80%" stop-color="#ffffff" stop-opacity="1"></stop></linearGradient></defs><g transform="translate(900, 0)"><path d="M0 270.4C-26.7 264.6 -53.4 258.8 -81.9 252C-110.4 245.2 -140.8 237.5 -158.1 217.6C-175.4 197.8 -179.8 165.8 -196.6 142.8C-213.4 119.9 -242.8 105.9 -257.2 83.6C-271.6 61.3 -271 30.6 -270.4 0L0 0Z" fill="#acdfa4"></path></g><g transform="translate(0, 600)"><path d="M0 -270.4C27.3 -266.4 54.5 -262.4 83.1 -255.8C111.7 -249.3 141.7 -240.2 158.9 -218.8C176.2 -197.3 180.7 -163.5 190.1 -138.1C199.6 -112.7 214 -95.8 228.3 -74.2C242.5 -52.5 256.4 -26.3 270.4 0L0 0Z" fill="#acdfa4"></path></g></svg>